<svg width="100%" height="100%" viewBox="0 0 71 50" fill="none" xmlns="http://www.w3.org/2000/svg">
<path d="M35.361 49.397C30.5579 49.3968 25.8628 47.9723 21.8693 45.3038C17.8757 42.6352 14.7632 38.8423 12.9253 34.4048C11.0874 29.9672 10.6066 25.0844 11.5438 20.3736C12.4809 15.6629 14.7939 11.3358 18.1903 7.93956C21.5866 4.54334 25.9138 2.23052 30.6246 1.29356C35.3354 0.356598 40.2183 0.837597 44.6557 2.6757C49.0932 4.5138 52.8859 7.62647 55.5543 11.6201C58.2228 15.6137 59.647 20.309 59.647 25.112C59.6401 31.5509 57.0792 37.724 52.5261 42.2768C47.9731 46.8297 41.7999 49.3904 35.361 49.397V49.397ZM35.361 3.73002C31.1319 3.72923 26.9975 4.98258 23.4807 7.33158C19.9639 9.68059 17.2227 13.0198 15.6038 16.9267C13.9848 20.8337 13.5608 25.133 14.3854 29.281C15.2099 33.429 17.2461 37.2392 20.2362 40.23C23.2264 43.2207 27.0363 45.2575 31.1841 46.0829C35.3319 46.9082 39.6313 46.485 43.5386 44.8668C47.4459 43.2486 50.7855 40.508 53.1352 36.9916C55.4849 33.4753 56.739 29.3412 56.739 25.112C56.7329 19.4437 54.4788 14.0092 50.4711 10.0008C46.4633 5.9923 41.0293 3.73717 35.361 3.73002V3.73002Z" fill="url(#paint0_linear)"/>
<path d="M66.573 3.02404C58.078 1.24604 36.894 12.7831 29.973 16.7371C29.3473 16.0575 28.5593 15.548 27.6829 15.2562C26.8065 14.9644 25.8703 14.8998 24.9621 15.0687C24.0539 15.2375 23.2035 15.6342 22.4905 16.2215C21.7775 16.8088 21.2253 17.5674 20.8856 18.4264C20.546 19.2855 20.4299 20.2167 20.5485 21.1328C20.667 22.0489 21.0161 22.9199 21.5632 23.6642C22.1103 24.4085 22.8374 25.0017 23.6764 25.3882C24.5154 25.7747 25.4388 25.9418 26.36 25.874C27.1359 25.8183 27.8908 25.5972 28.5742 25.2257C29.2576 24.8542 29.8536 24.3407 30.3223 23.7199C30.7909 23.0991 31.1213 22.3852 31.2913 21.6261C31.4614 20.8671 31.467 20.0804 31.308 19.319C40.147 14.276 59.256 4.45299 65.98 5.86699C66.3382 5.92523 66.6665 6.10178 66.9126 6.3684C67.1588 6.63501 67.3085 6.97634 67.338 7.338C67.423 9.706 64.344 13.247 61.845 15.467C61.568 15.7127 61.3956 16.0551 61.3632 16.4239C61.3309 16.7927 61.441 17.1599 61.671 17.45V17.45C61.7932 17.6051 61.9458 17.7336 62.1194 17.8276C62.293 17.9215 62.484 17.9791 62.6807 17.9966C62.8773 18.0141 63.0755 17.9912 63.263 17.9294C63.4505 17.8675 63.6234 17.7681 63.771 17.637C65.99 15.669 70.381 11.249 70.239 7.23705C70.1884 6.22559 69.7995 5.26043 69.1347 4.49645C68.4699 3.73247 67.5678 3.21393 66.573 3.02404ZM25.959 22.985C25.4537 22.9848 24.9598 22.8348 24.5397 22.5539C24.1197 22.273 23.7923 21.8738 23.5991 21.4068C23.4059 20.9399 23.3555 20.4262 23.4543 19.9306C23.5531 19.435 23.7966 18.9799 24.1541 18.6227C24.5115 18.2655 24.9669 18.0223 25.4625 17.9239C25.9582 17.8255 26.4719 17.8763 26.9387 18.0699C27.4055 18.2634 27.8044 18.5911 28.085 19.0113C28.3656 19.4316 28.5152 19.9257 28.515 20.431C28.514 21.1084 28.2443 21.7577 27.7651 22.2365C27.2859 22.7153 26.6364 22.9845 25.959 22.985V22.985Z" fill="url(#paint1_linear)"/>
<path d="M43.905 24.34C42.872 24.4293 41.8846 24.8055 41.0541 25.4263C40.2236 26.047 39.5831 26.8875 39.205 27.853C38.7743 28.8969 38.7012 30.0541 38.997 31.144C29.984 36.251 11.353 45.744 4.74801 44.356C4.38985 44.2978 4.06152 44.1212 3.81539 43.8546C3.56925 43.588 3.4195 43.2467 3.39002 42.885C3.30502 40.517 6.38402 36.976 8.88302 34.756C9.16003 34.5104 9.33244 34.168 9.3648 33.7991C9.39716 33.4303 9.28702 33.0631 9.05701 32.773V32.773C8.93466 32.6182 8.78201 32.4899 8.60839 32.3961C8.43477 32.3023 8.24384 32.2449 8.04728 32.2274C7.85071 32.2099 7.65263 32.2327 7.46517 32.2943C7.27771 32.356 7.1048 32.4552 6.95701 32.586C4.73801 34.554 0.347019 38.974 0.489019 42.986C0.539614 43.9967 0.928195 44.9611 1.59243 45.7245C2.25666 46.4879 3.15805 47.0061 4.15201 47.196C4.8058 47.3266 5.47133 47.3893 6.13801 47.383C15.429 47.383 33.738 37.476 40.443 33.662C41.0913 34.3038 41.8901 34.7729 42.7665 35.0263C43.6428 35.2798 44.5687 35.3095 45.4594 35.1129C46.3502 34.9162 47.1775 34.4994 47.8657 33.9006C48.5539 33.3018 49.081 32.54 49.3988 31.6849C49.7167 30.8299 49.8151 29.9087 49.6852 29.0058C49.5553 28.1029 49.2011 27.2469 48.6551 26.5161C48.109 25.7854 47.3885 25.2031 46.5595 24.8226C45.7304 24.4421 44.8191 24.2755 43.909 24.338L43.905 24.34ZM44.274 32.34C43.7687 32.3398 43.2748 32.1898 42.8547 31.9089C42.4346 31.628 42.1073 31.2288 41.9141 30.7618C41.7209 30.2949 41.6705 29.7812 41.7693 29.2856C41.8681 28.79 42.1116 28.3348 42.4691 27.9777C42.8265 27.6205 43.2819 27.3773 43.7775 27.2789C44.2732 27.1805 44.7869 27.2313 45.2537 27.4249C45.7205 27.6184 46.1194 27.9461 46.4 28.3663C46.6805 28.7866 46.8302 29.2807 46.83 29.786C46.8292 30.4637 46.5595 31.1134 46.0801 31.5925C45.6007 32.0715 44.9507 32.3407 44.273 32.341L44.274 32.34Z" fill="url(#paint2_linear)"/>
<defs>
<linearGradient id="paint0_linear" x1="-28.7018" y1="-9.227" x2="135.999" y2="79.0733" gradientUnits="userSpaceOnUse">
<stop stop-color="#EDCC95"/>
<stop offset="1" stop-color="#C59870"/>
</linearGradient>
<linearGradient id="paint1_linear" x1="-21.924" y1="-21.8238" x2="31.3344" y2="111.084" gradientUnits="userSpaceOnUse">
<stop stop-color="#EDCC95"/>
<stop offset="1" stop-color="#C59870"/>
</linearGradient>
<linearGradient id="paint2_linear" x1="-35.5199" y1="3.50361" x2="19.004" y2="136.831" gradientUnits="userSpaceOnUse">
<stop stop-color="#EDCC95"/>
<stop offset="1" stop-color="#C59870"/>
</linearGradient>
</defs>
</svg>
